<mxfile host="app.diagrams.net" modified="2022-04-01T03:32:28.889Z" agent="5.0 (Macintosh; Intel Mac OS X 10_15_7) AppleWebKit/537.36 (KHTML, like Gecko) Chrome/99.0.4844.84 Safari/537.36" etag="ZzKRvArj4A-f_WTNruXN" version="17.4.0" type="github">
  <diagram id="PaasxO74IRQSxe_8VHJd" name="Page-1">
    <mxGraphModel dx="905" dy="554" grid="1" gridSize="10" guides="1" tooltips="1" connect="1" arrows="1" fold="1" page="1" pageScale="1" pageWidth="827" pageHeight="1169" math="0" shadow="0">
      <root>
        <mxCell id="0" />
        <mxCell id="1" parent="0" />
        <mxCell id="8MXE6tdCsat9lCeSOFX3-1" value="" style="ellipse;whiteSpace=wrap;html=1;" parent="1" vertex="1">
          <mxGeometry x="330" y="750" width="120" height="80" as="geometry" />
        </mxCell>
        <mxCell id="8MXE6tdCsat9lCeSOFX3-2" value="" style="shape=document;whiteSpace=wrap;html=1;boundedLbl=1;" parent="1" vertex="1">
          <mxGeometry x="500" y="790" width="120" height="80" as="geometry" />
        </mxCell>
        <mxCell id="jGkMKqOJLSzYvuTAqRMv-1" value="" style="shape=parallelogram;perimeter=parallelogramPerimeter;whiteSpace=wrap;html=1;fixedSize=1;" vertex="1" parent="1">
          <mxGeometry x="240" y="720" width="120" height="60" as="geometry" />
        </mxCell>
      </root>
    </mxGraphModel>
  </diagram>
</mxfile>
